<svg width="135" height="103" viewBox="0 0 135 103" fill="none" xmlns="http://www.w3.org/2000/svg">
<path fill-rule="evenodd" clip-rule="evenodd" d="M74.8989 41.8367C74.4655 42.2123 74.0872 42.6813 73.7099 43.1497C71.5755 45.5096 69.0594 48.2155 67.7779 51.2107C66.119 55.1755 66.4392 58.3733 67.9294 60.8958C70.0295 64.4444 74.7792 66.5882 79.6907 66.7596C84.5693 66.9499 89.5906 65.3043 92.3843 61.812C94.3141 59.4448 95.2302 56.1595 94.3187 51.9246C93.3127 47.1178 90.0029 43.8917 85.7109 41.8591C84.0737 41.0503 82.3665 40.5326 80.5521 40.0766C81.9201 38.9109 83.3029 37.7362 84.7076 36.5493C89.4053 32.8348 94.6905 29.5325 100.026 26.8278C107.032 23.1589 114.392 20.7897 122.235 19.7696C122.928 19.6201 123.435 18.9517 123.35 18.249C123.264 17.5468 122.606 17.05 121.859 17.1056C113.712 18.1755 106.04 20.5992 98.7659 24.4232C93.334 27.3087 87.8388 30.6076 83.0459 34.5024C81.0753 36.1413 79.145 37.7567 77.2935 39.4521C73.2604 38.8989 69.1893 38.9938 65.9614 39.4793C44.5621 43.0636 25.7969 65.2989 14.7302 82.9646C14.3348 83.5688 14.5025 84.3498 15.1231 84.7432C15.7446 85.1362 16.5457 84.9243 16.9411 84.3201C27.6584 67.2319 45.6759 45.5526 66.4009 42.107C68.8384 41.702 71.8433 41.5962 74.8989 41.8367ZM78.2078 42.3074C77.3108 43.0759 76.4744 43.934 75.6953 44.8849C73.7798 47.1185 71.389 49.5009 70.1888 52.1985C68.9298 55.1807 69.0596 57.6126 70.1635 59.4811C71.9306 62.4703 75.8227 63.9815 79.7732 64.0813C83.8098 64.2566 88.0305 63.073 90.3031 60.1321C91.786 58.2735 92.445 55.7626 91.7634 52.5226C90.9032 48.5087 88.0891 45.8742 84.5884 44.2618C82.5939 43.2833 80.4138 42.6626 78.2078 42.3074Z" fill="white"/>
<path fill-rule="evenodd" clip-rule="evenodd" d="M15.206 84.1915C15.2664 83.5301 15.4913 82.7738 15.7172 82.0169C16.1303 80.5255 16.6549 79.0947 16.7546 78.0348C17.4375 71.6264 18.1766 63.933 16.8076 57.5817C16.6766 56.9055 15.9669 56.4382 15.257 56.5975C14.548 56.7562 14.0651 57.4107 14.2504 58.1808C15.5262 64.21 14.747 71.5518 14.1423 77.7896C13.9994 78.8745 13.3742 80.6129 12.9376 82.118C12.5952 83.4433 12.4211 84.6717 12.6688 85.6563C12.7709 86.2238 13.4471 86.961 14.8308 86.914C16.7646 86.7998 21.3094 85.0537 21.7668 84.9149C26.3933 83.4967 30.5291 82.3616 35.1693 84.4437C35.8117 84.6993 36.5829 84.3791 36.9304 83.8026C37.2236 83.1321 36.9022 82.3151 36.2589 82.0601C30.9866 79.7164 26.2024 80.7247 20.9503 82.3787C20.6534 82.5502 17.9471 83.6115 15.8916 84.0465C15.6503 84.0605 15.4444 84.1791 15.206 84.1915Z" fill="white"/>
</svg>
