<svg width="419" height="24" viewBox="0 0 419 24" fill="none" xmlns="http://www.w3.org/2000/svg">
<path fill-rule="evenodd" clip-rule="evenodd" d="M10.6919 1.51063C7.52794 1.30572 4.36845 1.09119 1.20963 0.869161C0.59248 0.825581 0.0847294 1.07085 0.0763603 1.41679C0.0679912 1.76274 0.562253 2.07901 1.17941 2.12259C4.02283 2.32096 6.86671 2.51433 9.7088 2.70253C9.86868 2.77234 10.1891 2.87936 10.7357 2.96174C27.7657 5.46815 46.1091 5.30031 63.474 5.59616C79.7628 6.3016 67.4243 5.28686 83.7207 5.78447C81.7802 5.7813 79.8404 5.77569 77.8992 5.76492C77.4954 5.76335 76.4488 5.76114 76.3054 5.77321C75.4849 5.85182 75.4715 6.24753 75.4768 6.3485C75.4794 6.39899 75.5562 6.9587 76.6697 7.03738C88.6306 7.87673 100.572 7.94052 112.463 8.05747C116.886 8.10056 121.305 8.1382 125.726 8.17108C127.263 8.18028 131.266 8.29565 131.817 8.2679C132.409 8.23637 132.635 8.03839 132.72 7.88031C142.316 8.08493 151.923 8.33077 161.533 8.61459C163.416 8.71803 165.296 8.8237 167.176 8.92943C187.666 10.0924 208.151 11.2977 228.639 12.4102C217.231 12.0734 205.795 11.7592 194.408 11.57C192.075 11.5312 189.748 11.528 187.417 11.4993C186.143 11.4814 182.847 11.3247 182.384 11.3831C181.695 11.4737 181.593 11.7659 181.578 11.9128C181.569 12.0025 181.632 12.5081 182.797 12.697C204.41 16.2108 226.421 17.9216 248.303 19.7714C254.059 20.2574 259.814 20.7558 265.567 21.264C251.833 20.6352 237.952 19.5861 224.235 18.6397C224.109 18.568 223.929 18.4964 223.672 18.4403C223.295 18.3558 222.128 18.2094 220.005 18.0037C219.547 17.9595 219.136 18.0754 218.941 18.2787C215.681 18.0626 212.431 17.8549 209.196 17.6636C198.603 17.0367 188.015 16.6212 177.424 16.022L175.027 15.8743L174.527 15.8439C172.691 15.7246 170.445 15.573 168.952 15.4724C168.09 15.4116 165.85 15.2832 165.541 15.2701C164.606 15.2354 164.457 15.7117 164.451 15.7338C164.448 15.746 164.477 16.4547 165.756 16.5433C166.612 16.6036 169.842 16.8071 174.371 17.0884C175.509 17.1617 176.507 17.2249 177.102 17.2589L177.56 17.2855C192.04 18.1731 215.244 19.5478 221.81 19.728C243.189 21.1805 265.01 22.9595 286.094 23.0912C286.786 23.0938 287.087 22.9856 287.146 22.9608C287.469 22.8168 287.534 22.6368 287.517 22.477C287.507 22.3756 287.407 21.962 286.529 21.8194C285.912 21.718 281.474 21.4248 279.765 21.2718C269.308 20.3357 258.851 19.407 248.39 18.5232C229.527 16.9279 210.567 15.4417 191.848 12.7993C192.762 12.8071 193.676 12.8174 194.591 12.8327C206.136 13.0238 217.733 13.3426 229.297 13.6861C265.212 14.7524 302.011 18.0245 337.743 18.2954C338.475 18.3017 338.8 18.1956 338.863 18.1712C339.206 18.0265 339.269 17.8388 339.252 17.6765C339.242 17.5775 339.135 17.1583 338.24 17.0166C337.502 16.8992 332.196 16.5598 330.152 16.3839C321.992 15.6817 313.824 14.9764 305.658 14.3818C292.178 13.4017 278.67 12.5146 265.169 11.7336C264.013 11.5229 262.816 11.3211 261.58 11.1283C270.682 11.5443 279.78 12.0026 288.877 12.5185C326.164 14.6267 331.239 15.2908 368.521 17.8909C383.962 18.969 399.633 20.5428 415.071 21.2537C415.618 21.2784 416.832 21.4089 417.428 21.4355C417.769 21.4515 418.019 21.4314 418.138 21.4121C418.632 21.3264 418.789 21.1322 418.839 20.976C418.882 20.8542 418.959 20.4517 418.034 20.1716C398.145 14.1466 366.766 14.0456 346.179 12.4065C262.115 5.71405 210.277 4.0696 126.393 1.92071C92.854 1.06053 88.0328 1.80554 54.5767 1.54579C42.7039 1.4531 30.8132 1.25079 19.0085 1.4909C17.4679 1.5241 14.2075 1.46365 12.1198 1.47473C11.5578 1.47887 11.0688 1.49215 10.6919 1.51063ZM411.723 19.8312C392.127 15.295 364.676 15.1344 346.111 13.6565C262.119 6.97061 210.353 5.32763 126.54 3.18021C93.0248 2.32219 88.2275 3.06692 54.7942 2.80924C46.2891 2.74152 37.774 2.62009 29.2894 2.64468C40.6355 3.28489 51.9842 3.84246 63.3477 4.33603C65.711 4.37515 68.0582 4.4228 70.3813 4.48841C98.9134 5.2876 98.8775 4.52785 127.482 5.73054C136.94 5.97039 146.398 6.20268 155.865 6.43824C174.181 6.5392 199.183 6.63041 222.206 7.68472C230.126 8.04837 237.813 8.52653 244.918 9.16037C259.572 9.74719 274.214 10.4335 288.852 11.2626C326.158 13.3699 331.249 14.0381 368.553 16.6402C382.866 17.6383 397.375 19.0661 411.723 19.8312ZM264.974 12.9771C256.323 12.479 247.675 12.0265 239.04 11.6204C235.197 11.4416 231.354 11.2654 227.51 11.094C229.609 11.2097 231.709 11.3228 233.809 11.4334C243.663 11.9606 253.542 12.4974 263.394 12.9188C263.884 12.9382 264.541 12.9829 265.276 13.0348L264.988 12.9808L264.974 12.9771ZM318.28 16.6279C314.06 16.2792 309.839 15.9404 305.618 15.6343C294.661 14.8386 283.687 14.1016 272.712 13.4348C272.977 13.5443 273.118 13.6426 273.183 13.7038C273.374 13.8769 273.407 14.0382 273.368 14.1803C273.343 14.2686 273.286 14.3714 273.153 14.4648C288.224 15.2932 303.314 16.1407 318.28 16.6279ZM250.097 10.9103C248.443 10.7372 246.749 10.573 245.019 10.4182C236.453 10.0761 227.886 9.76408 219.329 9.47809C225.876 9.76209 232.428 10.0566 238.977 10.3635C242.682 10.5372 246.389 10.7187 250.097 10.9103Z" fill="#F5C73D"/>
</svg>
