<svg width="260" height="299" viewBox="0 0 260 299" fill="none" xmlns="http://www.w3.org/2000/svg">
<path fill-rule="evenodd" clip-rule="evenodd" d="M42.575 134.936C30.6937 115.457 19.9913 94.7195 2.33128 79.7315C1.2829 78.8356 1.14818 77.2623 2.03901 76.2052C2.93484 75.1569 4.50822 75.0221 5.56525 75.913C23.6361 91.2527 34.6901 112.399 46.8451 132.332C47.5698 133.507 47.1921 135.053 46.012 135.769C44.8369 136.493 43.2996 136.111 42.575 134.936Z" fill="#F5C73D"/>
<path fill-rule="evenodd" clip-rule="evenodd" d="M72.2802 120.152C74.3907 110.724 74.7551 101.553 72.1686 92.2154C71.7983 90.8819 72.5805 89.5066 73.9075 89.1331C75.2395 88.7682 76.6199 89.5531 76.9852 90.8779C79.7989 101.031 79.4496 110.99 77.158 121.239C76.8591 122.59 75.5232 123.442 74.1733 123.136C72.8293 122.838 71.9763 121.494 72.2802 120.152Z" fill="#F5C73D"/>
<path fill-rule="evenodd" clip-rule="evenodd" d="M144.024 101.571C152.072 93.1599 156.433 83.229 156.98 71.5509C157.045 70.1738 158.216 69.1053 159.596 69.1744C160.972 69.2347 162.039 70.4081 161.974 71.7852C161.366 84.7112 156.548 95.7143 147.637 105.027C146.686 106.027 145.097 106.055 144.103 105.105C143.103 104.147 143.067 102.562 144.024 101.571Z" fill="#F5C73D"/>
<path fill-rule="evenodd" clip-rule="evenodd" d="M213.333 191.286C212.326 194.107 211.066 196.844 209.538 199.436C208.858 200.59 207.292 202.834 205.542 204.052C203.681 205.357 201.642 205.646 199.781 204.434C197.31 202.823 196.381 200.935 196.27 199.129C196.161 197.39 196.87 195.572 198.253 193.884C200.898 190.66 206.174 187.868 209.507 186.833C210.322 183.972 210.864 181.037 211.141 178.072C213.197 155.984 195.827 135.356 169.005 127.251C159.616 124.416 145.685 128.487 131.615 134.543C109.706 143.97 87.5897 158.575 80.9871 162.641C79.3545 163.642 78.2808 164.054 78.0342 164.081C76.8327 164.232 76.1665 163.658 75.7813 163.211C75.2314 162.558 75.035 161.898 75.0074 161.29C74.975 160.466 75.2604 159.608 76.0237 158.844C76.4475 158.426 77.1221 157.991 77.8725 157.581C78.3961 157.302 79.0173 157.082 79.3253 156.765C81.2927 154.729 83.1246 152.586 84.9829 150.45C91.2413 143.292 96.5594 135.637 101.649 127.607C117.822 102.092 135.538 76.2176 141.712 46.1295C141.989 44.78 143.309 43.9024 144.663 44.1831C146.012 44.4552 146.883 45.7765 146.61 47.1352C140.317 77.8232 122.365 104.261 105.872 130.284C101.542 137.114 97.0485 143.681 91.979 149.91C103.331 143.021 119.301 133.927 134.598 127.902C148.201 122.542 161.324 119.711 170.452 122.467C199.834 131.345 218.376 154.346 216.118 178.535C215.876 181.123 215.453 183.7 214.84 186.225C236.241 185.843 253.84 201.316 255.894 222.786C256.028 224.163 255.018 225.382 253.646 225.515C252.269 225.641 251.049 224.636 250.916 223.258C249.065 203.912 232.802 190.149 213.333 191.286ZM207.179 193.165C206.594 194.438 205.941 195.681 205.23 196.9C204.845 197.549 204.069 198.736 203.132 199.589C202.911 199.786 202.523 200.022 202.341 200.127C201.702 199.699 201.29 199.313 201.261 198.822C201.222 198.21 201.636 197.647 202.12 197.056C203.334 195.57 205.283 194.19 207.179 193.165Z" fill="#F5C73D"/>
</svg>
