<svg width="44" height="47" viewBox="0 0 44 47" fill="none" xmlns="http://www.w3.org/2000/svg">
<path fill-rule="evenodd" clip-rule="evenodd" d="M17.8854 9.51423C17.7589 8.76387 17.6636 8.02203 17.6021 7.2801C17.5093 6.1672 17.5667 5.0458 17.5338 3.93291C17.5195 3.46077 17.463 2.22986 17.4857 2.05281C17.6923 0.509933 18.9375 0.273836 19.3018 0.231681C19.478 0.206388 21.2873 0.00413439 21.6776 2.01072C22.1565 4.46414 22.3099 6.93439 22.1405 9.35409C22.5359 11.4113 23.2121 13.4599 24.1049 15.3148C27.6578 22.6919 34.4278 23.4086 41.7628 23.3411C42.8909 23.3242 43.8276 24.2095 43.8866 25.3308C43.9456 26.4606 43.1059 27.4386 41.9829 27.5397C37.8829 27.936 30.6086 31.2241 28.0936 34.6471C27.5675 35.3638 27.2615 37.0921 26.8568 38.7868C26.2919 41.139 25.62 43.466 24.8671 44.444C24.7541 44.5957 23.3807 46.1471 22.9709 46.3747C21.9862 46.9143 21.1979 46.6023 20.7502 46.3156C20.3025 46.029 19.7958 45.4641 19.5935 44.5282C19.3819 43.5502 19.5606 41.5436 19.5277 41.1136C19.408 39.5539 19.0961 36.4935 18.4595 33.863C18.1164 32.4466 17.7505 31.1398 17.1451 30.4906C14.9042 28.0878 11.321 28.4419 8.30352 28.8381C7.95701 28.8803 7.6105 28.9309 7.26483 28.9731C6.03643 29.3356 4.73212 29.6053 3.35365 29.7655C1.27203 30.01 0.929754 28.0962 0.911206 27.9697C0.872423 27.6915 0.728238 26.2583 2.29725 25.685C2.4684 25.6259 3.73138 25.3477 4.21785 25.2381C4.8957 25.0863 5.58113 24.9683 6.2691 24.8587C13.3756 22.6498 17.2353 16.4445 17.8854 9.51423ZM20.3245 17.1781C23.0072 22.7257 27.0785 25.4067 31.9044 26.6208H31.9036C28.8904 28.1974 26.1494 30.1703 24.6968 32.1516C24.1454 32.9019 23.6395 34.411 23.1834 36.1057C22.9364 34.5291 22.6025 32.8513 22.1616 31.418C21.6599 29.7824 20.9846 28.4251 20.2309 27.6157C18.7757 26.056 16.9495 25.1875 14.9859 24.7576C17.3365 22.6751 19.1188 20.0784 20.3245 17.1781Z" fill="#3D6BF5"/>
</svg>
