<?xml version="1.0" encoding="UTF-8"?>
<svg version="1.1" xmlns="http://www.w3.org/2000/svg" width="1183" height="1183">
<path d="M0 0 C1.50836929 0.00273422 1.50836929 0.00273422 3.04721069 0.00552368 C18.67788789 0.05309268 33.9415251 0.63489137 49.375 3.3125 C50.39142578 3.48410645 51.40785156 3.65571289 52.45507812 3.83251953 C92.42222258 10.75562087 130.98079467 24.67363678 165.375 46.3125 C166.37917969 46.94285156 167.38335938 47.57320313 168.41796875 48.22265625 C180.83231869 56.2877029 193.30401692 64.96770629 204.07421875 75.15234375 C206.01924261 76.9784867 208.00102581 78.7186221 210.0234375 80.45703125 C222.07849009 90.96861132 233.72653662 102.5367262 243.375 115.3125 C244.38242664 116.5937769 245.3917006 117.87360244 246.40234375 119.15234375 C254.00216251 128.83585709 260.96940854 138.80056603 267.375 149.3125 C267.75043945 149.92818848 268.12587891 150.54387695 268.51269531 151.17822266 C310.61997084 221.17448741 323.43778722 307.14338904 304.00170898 386.43896484 C290.86916956 437.90857214 266.27469499 484.45085891 230.07421875 523.390625 C227.57012409 526.10128029 225.12573155 528.8552361 222.6875 531.625 C219.48015545 535.19565438 216.16409981 538.41387915 212.4921875 541.5 C211.00469839 542.77342242 209.55405368 544.09053971 208.1328125 545.4375 C151.08682378 599.46236159 68.99900868 626.1181164 -8.60693359 624.21484375 C-52.74203754 622.52005576 -95.85595854 612.76299507 -135.625 593.3125 C-136.51719238 592.88130859 -137.40938477 592.45011719 -138.32861328 592.00585938 C-158.77925747 582.03550172 -178.02091927 569.74402959 -195.625 555.3125 C-196.61757813 554.52230469 -197.61015625 553.73210938 -198.6328125 552.91796875 C-207.06343266 546.05637708 -214.74002247 538.40880168 -222.4375 530.75 C-222.97338745 530.21937958 -223.5092749 529.68875916 -224.06140137 529.14205933 C-231.05116545 522.20542644 -237.55347254 515.08494073 -243.625 507.3125 C-244.43819702 506.28032349 -244.43819702 506.28032349 -245.26782227 505.22729492 C-296.77272457 439.15534954 -319.08100877 355.81980172 -309.59765625 272.71875 C-302.57878421 216.85810969 -280.52372464 163.53077043 -245.625 119.3125 C-244.92375 118.41917969 -244.2225 117.52585937 -243.5 116.60546875 C-229.77222121 99.47025915 -214.08450674 82.65287378 -196.625 69.3125 C-195.34036643 68.30046772 -194.0565783 67.28736177 -192.7734375 66.2734375 C-183.08986758 58.67762004 -173.13744013 51.71166978 -162.625 45.3125 C-161.43463135 44.58764404 -161.43463135 44.58764404 -160.22021484 43.84814453 C-111.59505525 14.54335625 -56.65552054 -0.21447293 0 0 Z M119.6875 265.375 C106.00403525 282.9153839 102.41242245 302.18751913 104.7734375 323.9921875 C108.01369574 340.86677911 118.2309302 356.39747777 131.8125 366.75 C148.00954815 377.61666366 165.97592266 383.11802575 185.4453125 379.65234375 C204.32488522 375.72675331 220.48747908 365.3551725 231.375 349.3125 C242.11558838 331.40681477 245.75449233 311.78483021 240.8125 291.25 C234.70134456 271.7800732 221.88715076 256.66011798 204.015625 247.07421875 C174.83768258 232.3366996 140.71115613 241.44534362 119.6875 265.375 Z M-240.625 246.3125 C-241.96050847 249.15877591 -241.96050847 249.15877591 -241.625 252.3125 C-239.14045292 257.25123066 -236.43893432 260.86847113 -232.48925781 264.78881836 C-231.99124161 265.28727264 -231.4932254 265.78572693 -230.9801178 266.29928589 C-229.35313749 267.92419746 -227.71583836 269.53825673 -226.078125 271.15234375 C-224.93975325 272.28511273 -223.80204762 273.41855148 -222.66497803 274.55262756 C-219.68614765 277.52006286 -216.69841617 280.47837344 -213.7086792 283.43481445 C-210.6531761 286.45950114 -207.60626214 289.49281347 -204.55859375 292.52539062 C-198.58905727 298.46285723 -192.61008062 304.3907027 -186.625 310.3125 C-194.30546655 319.37151182 -202.23331279 328.07064823 -210.74609375 336.35546875 C-212.44003841 338.02219182 -214.13338075 339.68952724 -215.82617188 341.35742188 C-218.4560065 343.94384931 -221.0894068 346.52617872 -223.7331543 349.09838867 C-226.31148389 351.61015005 -228.8736238 354.13751579 -231.43359375 356.66796875 C-232.2262413 357.43167282 -233.01888885 358.19537689 -233.83555603 358.98222351 C-238.10516185 363.23078825 -240.80946259 366.25094684 -241.625 372.3125 C-240.406147 376.27377225 -239.22473083 377.87633212 -235.875 380.3125 C-231.8920655 381.53801831 -229.30974665 381.03667114 -225.625 379.3125 C-223.04539352 377.38498702 -220.85607335 375.15157016 -218.625 372.8359375 C-217.985625 372.19185944 -217.34625 371.54778137 -216.6875 370.88418579 C-214.65464776 368.83008563 -212.64007218 366.75902894 -210.625 364.6875 C-209.27194033 363.31791589 -207.91778315 361.94941514 -206.5625 360.58203125 C-200.93731969 354.88106001 -195.42320195 349.14853674 -190.17636108 343.09466553 C-187.21701393 339.69504017 -184.08843121 336.47088125 -180.9375 333.25 C-180.28716797 332.56228516 -179.63683594 331.87457031 -178.96679688 331.16601562 C-178.01836914 330.20018555 -178.01836914 330.20018555 -177.05078125 329.21484375 C-176.48786377 328.63210693 -175.92494629 328.04937012 -175.3449707 327.44897461 C-173.625 326.3125 -173.625 326.3125 -171.75695801 326.52429199 C-169.11619879 327.50060933 -167.77764908 328.79219327 -165.79370117 330.78735352 C-165.05580856 331.52224503 -164.31791595 332.25713654 -163.55766296 333.01429749 C-162.37476433 334.21571632 -162.37476433 334.21571632 -161.16796875 335.44140625 C-160.34678055 336.26446762 -159.52559235 337.08752899 -158.67951965 337.93553162 C-156.940304 339.68147446 -155.20469231 341.43101365 -153.47241211 343.18383789 C-150.84013338 345.84704197 -148.1975543 348.49964669 -145.55273438 351.15039062 C-143.86135921 352.85094612 -142.17058489 354.55209945 -140.48046875 356.25390625 C-139.69794235 357.04068253 -138.91541595 357.8274588 -138.10917664 358.63807678 C-133.94267922 362.85813659 -129.92465749 367.15501683 -126.06541443 371.65856934 C-124.3220101 373.66040285 -122.48349874 375.48642894 -120.5 377.25 C-119.87867188 377.81589844 -119.25734375 378.38179687 -118.6171875 378.96484375 C-116.24380986 380.57036392 -114.46726693 381.03641993 -111.625 381.3125 C-108.13821277 380.0572566 -106.10885513 378.87439628 -103.6875 376.0625 C-102.22850579 372.28627969 -102.62691975 370.23710691 -103.625 366.3125 C-105.40159473 363.75537571 -107.56141825 361.69842853 -109.8203125 359.56640625 C-110.44598114 358.95159897 -111.07164978 358.33679169 -111.71627808 357.70335388 C-113.71379083 355.74587708 -115.73077597 353.8100495 -117.75 351.875 C-120.3825227 349.31883324 -123.00739583 346.75486778 -125.6328125 344.19140625 C-126.26423157 343.57812469 -126.89565063 342.96484314 -127.54620361 342.33297729 C-131.22865183 338.74117151 -134.70858577 335.06820588 -138.02294922 331.13061523 C-139.93708443 328.95832555 -141.97895933 326.96327673 -144.0625 324.953125 C-144.81144531 324.22996094 -145.56039062 323.50679687 -146.33203125 322.76171875 C-147.88477765 321.27245772 -149.44492667 319.79088324 -151.01171875 318.31640625 C-151.75035156 317.59839844 -152.48898437 316.88039063 -153.25 316.140625 C-153.92289062 315.5002832 -154.59578125 314.85994141 -155.2890625 314.20019531 C-156.625 312.3125 -156.625 312.3125 -156.50621033 310.51153564 C-155.24988879 307.3764205 -153.26347361 305.60817292 -150.86157227 303.24023438 C-150.12002396 302.50284782 -150.12002396 302.50284782 -149.36349487 301.75056458 C-147.72951057 300.12885481 -146.08538989 298.51781654 -144.44140625 296.90625 C-143.30339804 295.77891993 -142.16619678 294.65077472 -141.0297699 293.52185059 C-138.03647722 290.55134516 -135.03517479 287.58908292 -132.03125 284.6293335 C-127.22520669 279.89345256 -122.42658762 275.1501581 -117.63709831 270.39753723 C-115.96300779 268.74013619 -114.28262176 267.08931115 -112.60169983 265.43884277 C-111.5734772 264.42108314 -110.54550457 263.40307085 -109.51782227 262.38476562 C-108.61927017 261.49970337 -107.72071808 260.61464111 -106.79493713 259.70275879 C-103.69809577 256.2914838 -102.625 254.50405588 -102.625 249.875 C-103.92020834 245.2608203 -105.59181934 243.82372569 -109.625 241.3125 C-112.5367496 240.31173003 -112.5367496 240.31173003 -115.625 241.3125 C-122.71474769 246.49042394 -128.72707902 253.28465287 -134.90625 259.49609375 C-135.97076772 260.56248085 -137.03550962 261.62864419 -138.10046387 262.69459534 C-140.87763833 265.47555407 -143.65179425 268.25950444 -146.42529297 271.04412842 C-149.26605638 273.8951948 -152.10971872 276.74336669 -154.953125 279.59179688 C-160.5132283 285.16256518 -166.07014018 290.73650319 -171.625 296.3125 C-177.49105938 291.48375963 -182.84779648 286.20910634 -188.19338417 280.81928062 C-189.7673011 279.232461 -191.34444292 277.6489088 -192.92240906 276.06611633 C-196.26361396 272.71356611 -199.60083158 269.35706443 -202.9375 266 C-206.82353894 262.0903428 -210.71120426 258.18233129 -214.60307884 254.27848244 C-216.15730784 252.71776923 -217.70849898 251.154079 -219.25959778 249.59025574 C-220.20717906 248.63904402 -221.15489985 247.68797125 -222.1027832 246.73706055 C-222.92994339 245.90466354 -223.75710358 245.07226654 -224.60932922 244.21464539 C-227.02144617 241.93838223 -228.08539226 241.38608287 -231.375 240.9375 C-235.83046119 241.45159168 -237.59394775 243.06997899 -240.625 246.3125 Z M-81.625 259.3125 C-82.26179688 259.86679687 -82.89859375 260.42109375 -83.5546875 260.9921875 C-96.6317863 273.13935928 -103.52505268 291.58287091 -104.625 309.11328125 C-104.625 329.15427249 -97.25418309 346.77758006 -83.625 361.3125 C-69.97805625 374.49612159 -52.05829356 382.042504 -33.03857422 381.78320312 C-15.11649351 381.01726742 0.71857417 374.05932888 13.375 361.3125 C14.055625 360.66796875 14.73625 360.0234375 15.4375 359.359375 C19.75178374 355.22485308 23.04409805 351.95971558 23.8125 345.8125 C23.30386205 341.7433964 22.24154931 340.17904931 19.375 337.3125 C16.22588521 335.73794261 13.85491184 335.96450882 10.375 336.3125 C6.56590285 338.8518981 3.98102387 341.75448061 1.0625 345.25 C-5.83468545 353.28159095 -15.35640426 358.0282029 -25.625 360.3125 C-41.2517873 361.27439104 -54.19632097 359.66973253 -66.625 349.3125 C-67.33398438 348.73886719 -68.04296875 348.16523437 -68.7734375 347.57421875 C-77.10200007 340.12318672 -81.06421577 329.94600875 -83.625 319.3125 C-82.40248535 319.31694122 -81.1799707 319.32138245 -79.92041016 319.32595825 C-68.38545568 319.36654516 -56.85051573 319.39650404 -45.31550598 319.41612434 C-39.38559996 319.42655049 -33.45575169 319.44068846 -27.52587891 319.46337891 C-21.80059239 319.4851488 -16.07536135 319.49707742 -10.35003662 319.50225449 C-8.16842781 319.50594278 -5.98682194 319.51314509 -3.80523682 319.52396011 C-0.74378963 319.53853 2.31742984 319.54047563 5.37890625 319.53955078 C6.27586716 319.54674133 7.17282806 319.55393188 8.0969696 319.56134033 C16.03277806 319.53548941 23.08644613 318.60060212 29.375 313.3125 C33.20599432 308.37253364 34.01700813 304.48280507 33.75390625 298.26171875 C31.87184658 283.61269764 23.72298127 270.49823069 13.375 260.3125 C12.73820312 259.67699219 12.10140625 259.04148437 11.4453125 258.38671875 C2.53141205 250.04611895 -7.87093014 245.24707315 -19.625 242.3125 C-20.76001953 242.02439453 -20.76001953 242.02439453 -21.91796875 241.73046875 C-44.10815502 238.30427837 -64.86038959 244.41711445 -81.625 259.3125 Z M55.375 245.3125 C52.57318913 248.35916848 51.99754227 250.3557306 51.98059082 254.46066284 C51.96924103 255.50084564 51.95789124 256.54102844 51.94619751 257.61273193 C51.94912811 258.74841614 51.95205872 259.88410034 51.95507812 261.05419922 C51.94660858 262.25458832 51.93813904 263.45497742 51.92941284 264.69174194 C51.91002227 267.98115961 51.90426586 271.27022922 51.90616035 274.55969381 C51.9062801 277.30812459 51.89771402 280.05650238 51.88938284 282.80491841 C51.87015032 289.2910428 51.86726408 295.7770385 51.87402344 302.26318359 C51.8806619 308.94803118 51.8578081 315.63232665 51.82070971 322.31706226 C51.78998933 328.06159512 51.77865524 333.8059506 51.78254652 339.55056393 C51.78461195 342.97924054 51.77916799 346.40748765 51.75465393 349.83608627 C51.73253698 353.66184085 51.7421319 357.48626197 51.75976562 361.31201172 C51.74650238 362.44364746 51.73323914 363.5752832 51.71957397 364.74121094 C51.73793094 371.32569059 51.73793094 371.32569059 54.72595215 376.99612427 C57.79378025 379.67868908 59.31039673 380.39717923 63.375 380.3125 C67.08001602 378.6753999 69.36737108 376.81593706 71.375 373.3125 C71.66883087 370.45417464 71.79216739 367.81263136 71.77563477 364.95483398 C71.78261383 364.11360489 71.7895929 363.27237579 71.79678345 362.40565491 C71.81678323 359.62319956 71.81626016 356.84111467 71.81640625 354.05859375 C71.82818256 352.11767074 71.8415474 350.17675678 71.85643005 348.2358551 C71.89265556 343.11909691 71.9128207 338.00241872 71.92797852 332.88555908 C71.95277094 324.72106324 71.9928106 316.55674468 72.04987907 308.39241219 C72.06608372 305.55261632 72.0699756 302.71298988 72.07289124 299.87315369 C72.16601534 276.65243294 72.16601534 276.65243294 77.375 269.3125 C77.375 268.6525 77.375 267.9925 77.375 267.3125 C84.08639025 264.49804602 90.45158905 262.37287385 97.6875 261.4375 C102.32139101 260.73524162 102.32139101 260.73524162 106.0625 257.9375 C108.2798532 253.55970031 108.2798532 253.55970031 107.75 248.8125 C106.03701242 245.69797713 104.32443854 244.29254266 101.375 242.3125 C90.78117327 240.37859338 80.29785871 243.67105491 71.375 249.3125 C70.83875 248.52875 70.3025 247.745 69.75 246.9375 C65.033963 241.72503805 61.14126643 241.46832238 55.375 245.3125 Z " fill="#FFFFFF" transform="translate(590.625,279.6875)"/>
<path d="M0 0 C10.34099046 8.44813093 16.49615104 21.20461511 17.875 34.375 C18.54404857 49.2877405 14.45706763 61.93540909 4.75 73.4375 C-5.11927141 83.64246091 -17.31024315 89.00219031 -31.4375 89.3125 C-45.50859713 89.16531279 -57.36777746 84.25088412 -67.75 74.8125 C-78.88418197 62.87537222 -81.79661278 49.59493337 -81.34765625 33.859375 C-80.66593423 21.18276618 -74.52527894 9.52778098 -65.3203125 0.8828125 C-45.69334413 -15.04344803 -20.06889531 -15.20468473 0 0 Z M-45.5390625 27.6953125 C-48.74881953 32.12441857 -49.79075738 36.08804594 -49.48046875 41.5390625 C-48.39991367 47.07361294 -45.47452395 51.34042926 -40.8125 54.5 C-35.80077969 56.94580686 -30.2677405 57.011293 -24.98046875 55.375 C-20.05319109 52.97040262 -16.96563446 49.07064111 -15 44 C-14.11415515 39.03460649 -14.33057052 34.63600848 -16.6875 30.125 C-19.66393581 26.10278945 -22.2292814 23.59023953 -27 22 C-34.60902086 21.18854847 -40.26703444 21.88805317 -45.5390625 27.6953125 Z " fill="#FFFFFF" transform="translate(796,551)"/>
<path d="M0 0 C5.80828618 6.80313104 12 14.74666622 12 24 C-20.01 24 -52.02 24 -85 24 C-80.61653976 9.38846586 -74.0427298 -1.06233924 -60.67578125 -8.6484375 C-40.42308659 -18.87826575 -16.4400178 -16.30163381 0 0 Z " fill="#FFFFFF" transform="translate(592,555)"/>
</svg>
